<svg width="39" height="35" viewBox="0 0 39 35" fill="none" xmlns="http://www.w3.org/2000/svg">
<path d="M10.7397 0.00180038H7.1028C3.1797 0.00180038 0 3.1824 0 7.1046V34.3593C0 34.6338 0.3231 34.7796 0.5292 34.5987C2.367 32.9841 4.2039 31.3695 6.0417 29.7549C6.4674 29.3814 7.0146 29.1744 7.5807 29.1744H11.7243V0.9846C11.7243 0.441 11.2833 0 10.7397 0V0.00180038Z" fill="#C5CBD3"/>
<path d="M38.999 22.0708V7.10563C38.999 3.18163 35.8184 0.00102997 31.8944 0.00102997H28.2575C27.7139 0.00102997 27.2729 0.44203 27.2729 0.98563V29.1763H31.8944C35.8184 29.1763 38.999 25.9957 38.999 22.0717V22.0708Z" fill="#113362"/>
<path d="M25.3621 29.1755V10.127C25.3621 8.66452 24.1768 7.47923 22.7143 7.47923H16.2838C14.8213 7.47923 13.636 8.66452 13.636 10.127V29.1755H25.3621Z" fill="#F07024"/>
</svg>
